<?xml version="1.0" encoding="utf-8"?>
<!-- Generator: Adobe Illustrator 23.0.4, SVG Export Plug-In . SVG Version: 6.00 Build 0)  -->
<svg version="1.1" xmlns="http://www.w3.org/2000/svg" xmlns:xlink="http://www.w3.org/1999/xlink" x="0px" y="0px"
	 viewBox="0 0 288 159" style="enable-background:new 0 0 288 159;" xml:space="preserve">
<style type="text/css">
	.st0{display:none;}
	.st1{display:inline;}
	.st2{fill:#FFFFFF;}
	.st3{fill:#231F20;}
	.st4{fill:#87D1E6;}
	.st5{fill:#EADE98;}
	.st6{fill:#003B71;}
</style>
<g id="Editable" class="st0">
</g>
<g id="Layer_1">
	<g>
		<g>
			<path class="st4" d="M59.6,51.4h6l26.7,59.8h-8.7l-7.9-17.6H50.2l-7.4,17.6H34L59.6,51.4z M72.1,86l-9.6-21.5L53.6,86H72.1z"/>
			<path class="st4" d="M95.7,85.6c0-4.2,1.5-7.5,4.6-9.9c3.1-2.4,7.2-3.6,12.5-3.6h16.1v6H121c1.5,1.6,2.6,3,3.2,4.3
				c0.6,1.3,0.9,2.7,0.9,4.4c0,2-0.6,4.1-1.7,6c-1.2,2-2.7,3.5-4.5,4.5c-1.8,1-4.8,1.9-9,2.5c-2.9,0.4-4.4,1.4-4.4,3
				c0,0.9,0.5,1.7,1.6,2.2c1.1,0.6,3.1,1.2,5.9,1.8c4.8,1.1,7.9,1.9,9.3,2.5c1.4,0.6,2.6,1.4,3.7,2.6c1.9,1.9,2.8,4.2,2.8,7.1
				c0,3.7-1.7,6.7-5,8.9c-3.3,2.2-7.7,3.3-13.3,3.3c-5.6,0-10.1-1.1-13.4-3.3c-3.3-2.2-5-5.2-5-9c0-5.3,3.3-8.7,9.8-10.3
				c-2.6-1.7-3.9-3.3-3.9-5c0-1.2,0.6-2.4,1.7-3.4c1.1-1,2.6-1.8,4.5-2.3C98.6,95.4,95.7,91.3,95.7,85.6z M108.4,113.1
				c-2.6,0-4.7,0.6-6.4,1.7c-1.7,1.1-2.5,2.5-2.5,4.3c0,4,3.6,6,10.9,6c3.4,0,6.1-0.5,8-1.5c1.9-1,2.8-2.4,2.8-4.3
				c0-1.8-1.2-3.3-3.6-4.5S112.2,113.1,108.4,113.1z M110.3,78.8c-2.1,0-3.9,0.7-5.4,2.1c-1.5,1.4-2.2,3.1-2.2,5.1
				c0,2,0.7,3.7,2.2,5s3.3,2,5.5,2c2.2,0,4-0.7,5.5-2c1.5-1.3,2.2-3,2.2-5c0-2-0.7-3.7-2.2-5.1C114.3,79.5,112.5,78.8,110.3,78.8z"
				/>
			<path class="st4" d="M159.9,111.2v-5c-1.6,1.8-3.5,3.2-5.6,4.2c-2.1,1-4.2,1.5-6.3,1.5c-2.5,0-4.7-0.6-6.8-1.9
				c-2.1-1.2-3.7-2.9-4.7-5s-1.6-5.6-1.6-10.5V72.1h7.8v22.3c0,4.1,0.6,7,1.8,8.6c1.2,1.6,3.2,2.4,6.2,2.4c3.7,0,6.8-1.8,9.4-5.4
				v-28h7.8v39.2H159.9z"/>
			<path class="st4" d="M203.1,87.7v16.6c0,1.3,0.5,2,1.4,2c0.9,0,2.4-0.7,4.4-2.1v4.7c-1.8,1.1-3.2,1.9-4.2,2.3s-2.2,0.6-3.3,0.6
				c-3.3,0-5.3-1.3-5.9-3.9c-3.3,2.6-6.8,3.8-10.5,3.8c-2.7,0-5-0.9-6.8-2.7c-1.8-1.8-2.7-4.1-2.7-6.8c0-2.5,0.9-4.7,2.7-6.6
				c1.8-1.9,4.3-3.5,7.6-4.6l9.9-3.4v-2.1c0-4.7-2.4-7.1-7.1-7.1c-4.2,0-8.3,2.2-12.3,6.6v-8.5c3-3.5,7.3-5.3,13-5.3
				c4.2,0,7.6,1.1,10.2,3.3c0.9,0.7,1.6,1.7,2.3,2.8c0.7,1.2,1.1,2.4,1.3,3.5C203,82.2,203.1,84.4,203.1,87.7z M195.5,103.5V91.9
				l-5.2,2c-2.6,1-4.5,2.1-5.6,3.2s-1.6,2.4-1.6,4c0,1.6,0.5,2.9,1.6,4c1,1,2.4,1.5,4,1.5C191.1,106.5,193.4,105.5,195.5,103.5z"/>
			<path class="st4" d="M213.8,108.4v-8.3c2.2,1.5,4.4,2.8,6.7,3.7c2.3,1,4.2,1.4,5.8,1.4c1.6,0,3-0.4,4.2-1.2
				c1.2-0.8,1.7-1.7,1.7-2.9c0-1.1-0.4-2.1-1.1-2.8c-0.8-0.8-2.4-1.8-4.9-3.3c-5-2.8-8.3-5.2-9.8-7.1c-1.5-2-2.3-4.1-2.3-6.5
				c0-3,1.2-5.5,3.5-7.4c2.3-1.9,5.4-2.9,9-2.9c3.8,0,7.8,1.1,11.8,3.2v7.7c-4.6-2.8-8.4-4.2-11.3-4.2c-1.5,0-2.7,0.3-3.6,1
				c-0.9,0.6-1.4,1.5-1.4,2.5c0,0.9,0.4,1.8,1.3,2.6s2.3,1.8,4.4,3l2.8,1.6c6.5,3.7,9.8,7.8,9.8,12.3c0,3.2-1.3,5.8-3.8,7.9
				c-2.5,2.1-5.7,3.1-9.7,3.1c-2.3,0-4.4-0.2-6.2-0.7C218.9,110.7,216.6,109.8,213.8,108.4z"/>
		</g>
		<g>
			<path class="st5" d="M90.3,37.9c3.2,0,6,0.6,8.4,1.9c2.5,1.3,4.4,3.1,5.7,5.4c1.4,2.3,2,4.9,2,7.9c0,3-0.7,5.6-2.1,7.9
				c-1.4,2.3-3.3,4.1-5.8,5.3s-5.4,1.9-8.7,1.9H77.6V37.9H90.3z M89.7,63.6c3.2,0,5.8-1,7.8-2.9c2-1.9,2.9-4.5,2.9-7.7
				c0-3.3-1-5.9-3-7.7c-2-1.9-4.6-2.8-8-2.8h-6v21.2H89.7z"/>
			<path class="st5" d="M127.5,37.5c3.1,0,6,0.6,8.5,1.9s4.5,3.2,6,5.6c1.5,2.4,2.2,5.1,2.2,8c0,2.8-0.7,5.5-2.2,7.9
				c-1.5,2.4-3.5,4.3-6,5.6c-2.5,1.3-5.4,2-8.6,2c-3.1,0-6-0.7-8.6-2c-2.6-1.4-4.6-3.2-6-5.6c-1.4-2.4-2.1-5-2.1-7.9
				c0-2.8,0.7-5.4,2.1-7.8c1.4-2.4,3.4-4.3,5.9-5.7C121.3,38.2,124.2,37.5,127.5,37.5z M116.8,53.1c0,2,0.5,3.8,1.4,5.4
				s2.2,2.9,3.8,3.7c1.6,0.9,3.5,1.3,5.5,1.3c3.1,0,5.7-1,7.7-2.9c2-2,3-4.5,3-7.6c0-2-0.5-3.8-1.4-5.4c-0.9-1.6-2.2-2.9-3.8-3.7
				c-1.6-0.9-3.5-1.3-5.5-1.3s-3.9,0.4-5.5,1.3c-1.6,0.9-2.9,2.1-3.8,3.7S116.8,51,116.8,53.1z"/>
			<path class="st5" d="M158.5,37.5c3,0,5.8,0.7,8.5,2.2v5.2c-3.1-1.9-5.9-2.8-8.4-2.8c-1.5,0-2.6,0.3-3.5,0.9
				c-0.8,0.6-1.2,1.3-1.2,2.3c0,1.1,0.8,2.2,2.3,3.2c0.4,0.3,2.1,1.1,5,2.4c2.5,1.2,4.3,2.5,5.4,3.9c1.1,1.4,1.6,3.2,1.6,5.2
				c0,2.6-0.9,4.7-2.8,6.3c-1.9,1.6-4.3,2.4-7.3,2.4c-1.9,0-3.6-0.2-5-0.6s-3-1.2-4.7-2.2V60c3.2,2.7,6.3,4,9.2,4
				c1.4,0,2.6-0.3,3.5-0.9c0.9-0.6,1.3-1.4,1.3-2.5c0-1.4-0.8-2.5-2.3-3.4c-1.3-0.7-2.9-1.5-4.9-2.5c-2.4-1.1-4.2-2.4-5.3-3.8
				c-1.2-1.4-1.8-3.1-1.8-5c0-2.5,0.9-4.6,2.8-6.1C152.9,38.2,155.4,37.5,158.5,37.5z"/>
		</g>
		<g>
			<path class="st5" d="M135.9,117.9c0.8,0,1.4,0.2,1.9,0.7s0.7,1,0.7,1.7c0,0.7-0.2,1.3-0.7,1.7s-1.1,0.7-1.9,0.7h-1.5v3.5h-1.6
				v-8.3H135.9z M135.5,121.4c0.4,0,0.8-0.1,1-0.3c0.2-0.2,0.4-0.5,0.4-0.9c0-0.8-0.5-1.1-1.5-1.1h-1.1v2.3H135.5z"/>
			<path class="st5" d="M146,117.9v1.2h-3.8v2.2h3.6v1.2h-3.6v2.4h3.8v1.2h-5.4v-8.3H146z"/>
			<path class="st5" d="M151.5,117.9c0.8,0,1.4,0.2,1.9,0.6c0.5,0.4,0.7,1,0.7,1.7c0,0.5-0.1,0.9-0.4,1.2s-0.6,0.6-1.1,0.8
				c0.3,0.1,0.5,0.3,0.7,0.6c0.2,0.2,0.5,0.7,0.8,1.2c0.5,1,0.9,1.7,1.1,2.1h-1.8c-0.1-0.2-0.3-0.5-0.5-0.9c-0.5-0.9-0.8-1.5-1-1.8
				c-0.2-0.3-0.4-0.5-0.6-0.7c-0.2-0.1-0.4-0.2-0.7-0.2h-0.6v3.5h-1.6v-8.3H151.5z M151.1,121.4c0.4,0,0.7-0.1,1-0.3
				c0.2-0.2,0.4-0.5,0.4-0.9c0-0.4-0.1-0.7-0.4-0.9c-0.2-0.2-0.6-0.3-1-0.3h-1v2.3H151.1z"/>
			<path class="st5" d="M159.5,117.8c0.8,0,1.6,0.2,2.3,0.6v1.4c-0.9-0.5-1.6-0.8-2.3-0.8c-0.4,0-0.7,0.1-0.9,0.2
				c-0.2,0.2-0.3,0.4-0.3,0.6c0,0.3,0.2,0.6,0.6,0.9c0.1,0.1,0.6,0.3,1.4,0.7c0.7,0.3,1.2,0.7,1.5,1.1c0.3,0.4,0.5,0.9,0.5,1.4
				c0,0.7-0.3,1.3-0.8,1.7c-0.5,0.4-1.2,0.7-2,0.7c-0.5,0-1-0.1-1.4-0.2s-0.8-0.3-1.3-0.6v-1.6c0.9,0.7,1.7,1.1,2.5,1.1
				c0.4,0,0.7-0.1,0.9-0.3c0.2-0.2,0.4-0.4,0.4-0.7c0-0.4-0.2-0.7-0.6-0.9c-0.3-0.2-0.8-0.4-1.3-0.7c-0.7-0.3-1.1-0.6-1.5-1
				c-0.3-0.4-0.5-0.9-0.5-1.4c0-0.7,0.3-1.2,0.8-1.7C158,118,158.7,117.8,159.5,117.8z"/>
			<path class="st5" d="M168.8,117.8c0.9,0,1.6,0.2,2.3,0.5c0.7,0.4,1.2,0.9,1.6,1.5c0.4,0.7,0.6,1.4,0.6,2.2c0,0.8-0.2,1.5-0.6,2.2
				s-0.9,1.2-1.6,1.5c-0.7,0.4-1.5,0.5-2.3,0.5c-0.9,0-1.6-0.2-2.3-0.6s-1.2-0.9-1.6-1.5s-0.6-1.4-0.6-2.2c0-0.8,0.2-1.5,0.6-2.1
				c0.4-0.7,0.9-1.2,1.6-1.6C167.1,117.9,167.9,117.8,168.8,117.8z M165.8,122c0,0.5,0.1,1,0.4,1.5s0.6,0.8,1,1
				c0.4,0.2,0.9,0.4,1.5,0.4c0.8,0,1.5-0.3,2.1-0.8s0.8-1.2,0.8-2.1c0-0.5-0.1-1-0.4-1.5s-0.6-0.8-1-1c-0.4-0.2-1-0.4-1.5-0.4
				c-0.6,0-1.1,0.1-1.5,0.4c-0.4,0.2-0.8,0.6-1,1S165.8,121.4,165.8,122z"/>
			<path class="st5" d="M177.1,117.9l4.9,5.8v-5.8h1.6v8.3h-1.4l-4.9-5.9v5.9h-1.6v-8.3H177.1z"/>
			<path class="st5" d="M190.5,117.9l3.7,8.3h-1.7l-0.9-2H188l-0.8,2h-1.7l3.4-8.3H190.5z M188.4,122.9h2.7l-1.4-3.3L188.4,122.9z"
				/>
			<path class="st5" d="M197.7,117.9v7h4v1.2h-5.6v-8.3H197.7z"/>
			<path class="st5" d="M212.3,117.8c0.5,0,0.9,0.1,1.4,0.2s0.9,0.3,1.5,0.5v1.5c-0.5-0.3-1-0.5-1.4-0.6c-0.4-0.1-0.9-0.2-1.4-0.2
				c-0.6,0-1.1,0.1-1.6,0.4c-0.5,0.2-0.8,0.6-1.1,1s-0.4,0.9-0.4,1.5c0,0.6,0.1,1,0.4,1.5s0.6,0.8,1.1,1c0.5,0.2,1,0.4,1.6,0.4
				c0.5,0,0.9-0.1,1.3-0.2c0.4-0.1,0.9-0.4,1.6-0.7v1.5c-0.5,0.3-1,0.5-1.5,0.6c-0.5,0.1-1,0.2-1.6,0.2c-0.9,0-1.7-0.2-2.3-0.5
				c-0.7-0.3-1.2-0.8-1.6-1.5c-0.4-0.7-0.6-1.4-0.6-2.1c0-0.8,0.2-1.6,0.6-2.2c0.4-0.7,1-1.2,1.7-1.5S211.4,117.8,212.3,117.8z"/>
			<path class="st5" d="M221.9,117.9l3.7,8.3h-1.7l-0.9-2h-3.7l-0.8,2h-1.7l3.4-8.3H221.9z M219.8,122.9h2.7l-1.4-3.3L219.8,122.9z"
				/>
			<path class="st5" d="M230.4,117.9c0.8,0,1.4,0.2,1.9,0.6c0.5,0.4,0.7,1,0.7,1.7c0,0.5-0.1,0.9-0.4,1.2s-0.6,0.6-1.1,0.8
				c0.3,0.1,0.5,0.3,0.7,0.6c0.2,0.2,0.5,0.7,0.8,1.2c0.5,1,0.9,1.7,1.1,2.1h-1.8c-0.1-0.2-0.3-0.5-0.5-0.9c-0.5-0.9-0.8-1.5-1-1.8
				c-0.2-0.3-0.4-0.5-0.6-0.7c-0.2-0.1-0.4-0.2-0.7-0.2H229v3.5h-1.6v-8.3H230.4z M230,121.4c0.4,0,0.7-0.1,1-0.3
				c0.2-0.2,0.4-0.5,0.4-0.9c0-0.4-0.1-0.7-0.4-0.9c-0.2-0.2-0.6-0.3-1-0.3h-1v2.3H230z"/>
			<path class="st5" d="M241.5,117.9v1.2h-3.8v2.2h3.6v1.2h-3.6v2.4h3.8v1.2h-5.4v-8.3H241.5z"/>
		</g>
		<g>
			<path class="st4" d="M205.5,60c-13.7-0.8-27.7-1.6-33.2,7.6v4.5c2.2-5.5,8.4-8.1,10.2-8.6c6.4-1.7,16.1-1.2,22.8-0.8
				c13.4,0.7,27.2,1.4,32-7.3v-5C233.6,60.1,224.8,61.1,205.5,60z"/>
			<path d="M217.7,52.3c0.4-0.1,0.8-0.1,1.2-0.2C218.5,52.1,218.1,52.2,217.7,52.3z"/>
			<path class="st4" d="M209.8,25c0.3,0.1,0.5,0.2,0.8,0.3C210.3,25.2,210.1,25.1,209.8,25z"/>
			<path d="M229.3,48.1c0.2-0.1,0.4-0.3,0.5-0.4C229.6,47.9,229.5,48,229.3,48.1z"/>
			<path class="st4" d="M210.8,25.4c0.2,0.1,0.4,0.2,0.5,0.3C211.2,25.6,211,25.5,210.8,25.4z"/>
			<path class="st4" d="M211.6,25.8c0.2,0.1,0.3,0.2,0.5,0.3C211.9,26,211.8,25.9,211.6,25.8z"/>
			<path class="st4" d="M209,24.7c0.2,0.1,0.5,0.2,0.7,0.2C209.5,24.8,209.2,24.8,209,24.7z"/>
			<path d="M218.9,52.1c0.4-0.1,0.8-0.1,1.1-0.2C219.7,51.9,219.3,52,218.9,52.1z"/>
			<path d="M221.3,51.6c0.3-0.1,0.7-0.2,1-0.3C221.9,51.4,221.6,51.5,221.3,51.6z"/>
			<path d="M207.2,24.3c0.2,0,0.4,0.1,0.6,0.1C207.6,24.4,207.4,24.3,207.2,24.3z"/>
			<path d="M206,24.2c0.3,0,0.6,0,0.9,0.1C206.6,24.2,206.3,24.2,206,24.2z"/>
			<path class="st4" d="M208.1,24.5c0.2,0,0.4,0.1,0.6,0.1C208.5,24.6,208.3,24.5,208.1,24.5z"/>
			<path class="st4" d="M221.1,28.5c-0.2,0.1-0.3,0.2-0.5,0.3C220.7,28.7,220.9,28.6,221.1,28.5z"/>
			<path d="M220.1,51.9c0.4-0.1,0.7-0.2,1.1-0.2C220.8,51.7,220.5,51.8,220.1,51.9z"/>
			<path class="st4" d="M221.7,28.1c-0.2,0.1-0.4,0.2-0.6,0.3C221.3,28.3,221.5,28.2,221.7,28.1z"/>
			<path class="st4" d="M223.1,27.5c-0.2,0.1-0.4,0.1-0.6,0.2C222.7,27.6,222.9,27.6,223.1,27.5z"/>
			<path class="st4" d="M220.4,25.7c0.2-0.1,0.4-0.2,0.7-0.3C220.8,25.5,220.6,25.6,220.4,25.7z"/>
			<path d="M201.6,52c0.2,0,0.5,0,0.7,0.1C202.1,52,201.8,52,201.6,52z"/>
			<path class="st4" d="M215,28.6c0.1,0.1,0.2,0.3,0.3,0.4C215.2,28.9,215.1,28.8,215,28.6z"/>
			<path class="st4" d="M221.2,25.4c0.2-0.1,0.4-0.2,0.6-0.2C221.6,25.2,221.4,25.3,221.2,25.4z"/>
			<path d="M200.7,51.9c0.3,0,0.5,0,0.8,0C201.2,52,200.9,51.9,200.7,51.9z"/>
			<path class="st4" d="M212.3,26.3c0.2,0.1,0.3,0.2,0.5,0.4C212.7,26.5,212.5,26.4,212.3,26.3z"/>
			<path d="M216.4,52.4c0.4,0,0.9-0.1,1.3-0.1C217.3,52.3,216.8,52.4,216.4,52.4z"/>
			<path class="st4" d="M213,26.7c0.2,0.2,0.4,0.3,0.6,0.5C213.4,27.1,213.2,26.9,213,26.7z"/>
			<path d="M230,47.6c0.2-0.1,0.3-0.3,0.5-0.4C230.3,47.3,230.1,47.5,230,47.6z"/>
			<path class="st4" d="M214.4,28c0.1,0.1,0.2,0.2,0.4,0.4C214.7,28.3,214.5,28.2,214.4,28z"/>
			<path class="st4" d="M222.4,27.8c-0.2,0.1-0.4,0.2-0.6,0.3C222,27.9,222.2,27.8,222.4,27.8z"/>
			<path class="st4" d="M213.8,27.4c0.1,0.1,0.3,0.3,0.4,0.4C214.1,27.7,213.9,27.5,213.8,27.4z"/>
			<path d="M207.2,45C207.2,45.1,207.2,45.1,207.2,45C207.2,45.1,207.2,45.1,207.2,45z"/>
			<path d="M228.6,48.6c0.2-0.1,0.4-0.3,0.6-0.4C229,48.3,228.8,48.5,228.6,48.6z"/>
			<path d="M206,43.9C206,43.9,206,43.9,206,43.9C206,43.9,206,43.9,206,43.9z"/>
			<path d="M203.7,45.5c-0.2-0.1-0.4-0.3-0.6-0.4C203.3,45.2,203.5,45.4,203.7,45.5z"/>
			<path d="M226.2,49.9c0.2-0.1,0.5-0.2,0.7-0.4C226.7,49.7,226.4,49.8,226.2,49.9z"/>
			<path d="M225.3,50.3c0.3-0.1,0.5-0.2,0.8-0.3C225.8,50.1,225.6,50.2,225.3,50.3z"/>
			<path d="M206.6,44.5C206.7,44.5,206.7,44.5,206.6,44.5C206.7,44.5,206.7,44.5,206.6,44.5z"/>
			<path d="M227,49.5c0.2-0.1,0.5-0.2,0.7-0.4C227.5,49.3,227.3,49.4,227,49.5z"/>
			<path d="M204.1,27c-0.3,0-0.5,0.1-0.8,0.1C203.5,27,203.8,27,204.1,27z"/>
			<path d="M205.1,26.9c-0.3,0-0.5,0-0.8,0.1C204.6,26.9,204.9,26.9,205.1,26.9z"/>
			<path d="M227.8,49.1c0.2-0.1,0.4-0.2,0.6-0.4C228.3,48.8,228,48.9,227.8,49.1z"/>
			<path class="st4" d="M218.7,30.6c0,0-0.1,0.1-0.1,0.1C218.7,30.6,218.7,30.6,218.7,30.6z"/>
			<path d="M204.2,42.6C204.3,42.6,204.3,42.7,204.2,42.6C204.3,42.7,204.3,42.6,204.2,42.6z"/>
			<path d="M231.1,46.6c0.1-0.1,0.3-0.3,0.4-0.4C231.4,46.3,231.3,46.4,231.1,46.6z"/>
			<path d="M205.3,43.4C205.3,43.4,205.3,43.4,205.3,43.4C205.3,43.4,205.3,43.4,205.3,43.4C205.3,43.4,205.3,43.4,205.3,43.4
				C205.4,43.4,205.4,43.4,205.3,43.4z"/>
			<path class="st4" d="M220.4,28.9c-0.2,0.1-0.3,0.2-0.4,0.4C220.1,29.1,220.3,29,220.4,28.9z"/>
			<path d="M205.6,47.3c-0.1-0.1-0.2-0.3-0.3-0.4C205.4,47,205.5,47.2,205.6,47.3z"/>
			<path d="M222.3,51.3c0.3-0.1,0.6-0.2,1-0.3C223,51.1,222.7,51.2,222.3,51.3z"/>
			<path d="M223.4,51c0.3-0.1,0.6-0.2,0.9-0.3C224,50.8,223.7,50.9,223.4,51z"/>
			<path d="M203.8,45.6C203.8,45.6,203.8,45.6,203.8,45.6C203.8,45.6,203.8,45.6,203.8,45.6z"/>
			<path d="M204.4,46.1c-0.1-0.1-0.3-0.2-0.4-0.3C204.2,45.9,204.3,46,204.4,46.1z"/>
			<path d="M208.9,48C208.9,48,208.9,48,208.9,48C208.9,48,208.9,48,208.9,48z"/>
			<path d="M206.4,49.2c-0.1-0.7-0.4-1.3-0.8-1.9C206,47.9,206.3,48.5,206.4,49.2z"/>
			<path class="st4" d="M219.3,29.9c-0.1,0.1-0.2,0.2-0.3,0.3C219.1,30.1,219.2,30,219.3,29.9z"/>
			<path d="M208.2,46.4C208.2,46.4,208.2,46.4,208.2,46.4C208.2,46.4,208.2,46.4,208.2,46.4z"/>
			<path d="M224.4,50.7c0.3-0.1,0.6-0.2,0.8-0.3C224.9,50.5,224.7,50.6,224.4,50.7z"/>
			<path d="M209.1,49.1c0-0.1,0-0.1,0-0.2c0,0,0,0,0,0C209.1,49,209.1,49,209.1,49.1L209.1,49.1z"/>
			<path d="M207.3,27c-0.3-0.1-0.6-0.1-1-0.1C206.6,26.9,207,27,207.3,27z"/>
			<path class="st4" d="M219.5,29.7c0.1-0.1,0.2-0.2,0.3-0.3C219.7,29.5,219.6,29.6,219.5,29.7z"/>
			<path class="st4" d="M207.3,27c4.6,0.8,6.9,4.9,7.6,6.3l1.5,3.3l0,0l-1.5-3.3C214.2,31.9,211.9,27.9,207.3,27z"/>
			<path d="M218,54.9c-0.3,0-0.6,0.1-0.9,0.1C217.4,55,217.7,54.9,218,54.9z"/>
			<path d="M231.7,49.6C231.7,49.6,231.7,49.6,231.7,49.6C231.7,49.6,231.7,49.6,231.7,49.6z"/>
			<path d="M233.5,47.9C233.5,47.9,233.5,48,233.5,47.9C233.5,48,233.5,47.9,233.5,47.9z"/>
			<path class="st4" d="M234.8,37.8c0,1.2-0.2,2.5-0.6,3.7c0,0.1-0.1,0.3-0.1,0.4c0-0.1,0.1-0.3,0.1-0.4
				C234.6,40.3,234.8,39,234.8,37.8z"/>
			<path d="M233.9,42.5c0.1-0.1,0.1-0.2,0.1-0.4C234,42.2,233.9,42.4,233.9,42.5z"/>
			<path class="st4" d="M222,25.1c0.2-0.1,0.4-0.1,0.5-0.2C222.3,24.9,222.2,25,222,25.1z"/>
			<path d="M205.2,26.9c0.4,0,0.7,0,1,0C205.9,26.9,205.5,26.9,205.2,26.9z"/>
			<path d="M231,46.7c-0.1,0.1-0.3,0.3-0.4,0.4C230.7,47,230.9,46.8,231,46.7z"/>
			<path d="M208,55.2c-0.6,0-1.2-0.1-1.8-0.1C206.8,55.1,207.4,55.2,208,55.2z"/>
			<path d="M233.6,43.1c0.1-0.1,0.1-0.2,0.2-0.4C233.7,42.8,233.7,43,233.6,43.1z"/>
			<path d="M232.1,45.4c0.1-0.1,0.2-0.3,0.3-0.4C232.3,45.2,232.2,45.3,232.1,45.4z"/>
			<path d="M236.5,43.2c0,0.1,0,0.1-0.1,0.2C236.5,43.3,236.5,43.2,236.5,43.2z"/>
			<path d="M208,55.2c3.2,0.2,6.1,0.1,8.8-0.2c-1.7,0.2-3.5,0.3-5.4,0.3C210.4,55.3,209.2,55.3,208,55.2z"/>
			<path d="M203.2,54.8c0.4,0,0.8,0.1,1.1,0.1c0.3,0,0.6,0.1,0.9,0.1c-0.3,0-0.6-0.1-0.9-0.1C203.9,54.9,203.6,54.8,203.2,54.8z"/>
			<path d="M236.1,44.2C236.1,44.2,236,44.3,236.1,44.2C236,44.3,236.1,44.2,236.1,44.2z"/>
			<path d="M204.5,46.1c0.3,0.2,0.6,0.5,0.8,0.8C205,46.6,204.8,46.4,204.5,46.1z"/>
			<path d="M185.7,55.2c5.7-0.9,12.5-0.8,17.2-0.4C198.3,54.4,191.6,54.2,185.7,55.2z"/>
			<path d="M216.4,52.4c-3.1,0.3-6.5,0.3-10.5,0c-0.4,0-0.9-0.1-1.3-0.1c-0.5-0.1-1.2-0.1-2.2-0.2c1,0.1,1.8,0.2,2.2,0.2
				C209.1,52.7,213,52.7,216.4,52.4z"/>
			<path d="M233,44.3c0.1-0.1,0.2-0.3,0.2-0.4C233.1,44,233,44.2,233,44.3z"/>
			<path d="M235.6,45.1c0,0,0,0.1-0.1,0.1C235.5,45.2,235.6,45.1,235.6,45.1z"/>
			<path d="M192.6,51.8c-1.3,0-2.6,0.1-4,0.3c-0.3,0-0.6,0.1-1,0.1c-0.1,0-0.3,0-0.4,0c0,0,0,0-0.1,0c-0.1,0-0.2,0-0.4,0
				c0.6-0.1,1.2-0.1,1.8-0.2C190,52,191.4,51.9,192.6,51.8z"/>
			<path d="M233.3,43.7c0.1-0.1,0.1-0.3,0.2-0.4C233.5,43.4,233.4,43.6,233.3,43.7z"/>
			<path d="M232.6,44.9c0.1-0.1,0.2-0.3,0.3-0.4C232.8,44.6,232.7,44.7,232.6,44.9z"/>
			<path d="M235,46.1c0,0-0.1,0.1-0.1,0.1C234.9,46.2,235,46.1,235,46.1z"/>
			<path d="M198.1,36.8c0.8,2.3,2.9,3.7,5.1,5.1c0.1,0,0.1,0.1,0.2,0.1c-0.1,0-0.1-0.1-0.2-0.1C201,40.5,198.8,39.1,198.1,36.8
				c-0.4-1.1-0.5-2.1-0.5-2.9C197.6,34.8,197.7,35.8,198.1,36.8z"/>
			<path class="st4" d="M228.6,24.8c0,0,0.1,0,0.1,0C228.7,24.8,228.6,24.8,228.6,24.8z"/>
			<path d="M192.7,51.8c0.4,0,0.8,0,1.2,0C193.5,51.8,193.1,51.8,192.7,51.8z"/>
			<path class="st4" d="M229.8,25.2c0.1,0,0.1,0.1,0.2,0.1C230,25.2,229.9,25.2,229.8,25.2z"/>
			<path class="st4" d="M224.7,27.2c-0.2,0-0.4,0-0.6,0.1C224.3,27.2,224.5,27.2,224.7,27.2z"/>
			<path class="st4" d="M231,25.7c0.1,0.1,0.2,0.1,0.4,0.2C231.2,25.8,231.1,25.8,231,25.7z"/>
			<path d="M231.7,46c0.1-0.1,0.2-0.3,0.3-0.4C231.9,45.7,231.8,45.9,231.7,46z"/>
			<path class="st4" d="M223.6,24.6c0.2,0,0.3-0.1,0.5-0.1C223.9,24.6,223.8,24.6,223.6,24.6z"/>
			<path class="st4" d="M224.4,24.5c0.2,0,0.4,0,0.6-0.1C224.8,24.5,224.6,24.5,224.4,24.5z"/>
			<path class="st4" d="M227.3,24.6c0,0,0.1,0,0.1,0C227.4,24.6,227.3,24.6,227.3,24.6z"/>
			<path d="M194,51.8c0.4,0,0.8,0,1.2,0C194.8,51.8,194.4,51.8,194,51.8z"/>
			<path class="st4" d="M223.9,27.3c-0.2,0-0.4,0.1-0.6,0.2C223.5,27.4,223.7,27.4,223.9,27.3z"/>
			<path class="st4" d="M220.4,25.8c-2,1.1-3.5,2.6-4.4,4.1c0,0,0,0,0,0c-0.1-0.2-0.3-0.4-0.4-0.6c0.2,0.2,0.3,0.4,0.5,0.6
				C216.9,28.4,218.4,26.8,220.4,25.8z"/>
			<path d="M197.5,51.8c-0.7,0-1.5,0-2.3,0c1.6,0,3,0,4.3,0.1C198.9,51.8,198.2,51.8,197.5,51.8z"/>
			<path d="M195.5,37.7c-1-3-0.7-6,0.7-8.5c1.4-2.4,3.8-4.1,6.4-4.7c1.2-0.2,2.3-0.3,3.3-0.3c0,0,0,0,0,0c-0.3,0-0.7,0-1,0
				c0,0,0,0,0,0c-0.7,0-1.5,0.1-2.3,0.3c-2.6,0.5-5,2.3-6.4,4.7C194.8,31.7,194.5,34.7,195.5,37.7c1,3.2,3.8,5,6.2,6.6
				c0.4,0.3,0.9,0.6,1.3,0.8c-0.4-0.3-0.8-0.6-1.3-0.8C199.3,42.7,196.6,40.9,195.5,37.7z"/>
			<path d="M185.6,55.2c-0.3,0.1-0.7,0.1-1,0.2C184.9,55.3,185.2,55.3,185.6,55.2z"/>
			<path class="st4" d="M226.1,24.5c-0.1,0-0.1,0-0.2,0c0,0,0,0,0,0c0,0,0,0,0,0c0,0,0,0,0,0c0,0,0,0,0,0c-0.2,0-0.4,0-0.6,0
				c0.2,0,0.4,0,0.6,0C226,24.5,226.1,24.5,226.1,24.5z"/>
			<path d="M199.7,51.9c0.3,0,0.5,0,0.8,0C200.2,51.9,200,51.9,199.7,51.9z"/>
			<path class="st4" d="M232.1,26.3c0.2,0.1,0.4,0.3,0.6,0.4C232.5,26.6,232.3,26.5,232.1,26.3z"/>
			<path class="st4" d="M234.9,29c1.8,2.4,2.7,5.6,2.6,8.8C237.5,34.6,236.6,31.4,234.9,29c-0.5-0.7-1.1-1.4-1.8-1.9
				C233.8,27.7,234.3,28.3,234.9,29z"/>
			<path class="st4" d="M222.8,24.8c0.2,0,0.3-0.1,0.5-0.1C223.1,24.7,223,24.8,222.8,24.8z"/>
			<path class="st4" d="M225.6,27.2c-0.2,0-0.4,0-0.6,0C225.1,27.2,225.3,27.2,225.6,27.2z"/>
			<path d="M186,52.4C186,52.4,186,52.4,186,52.4C186,52.4,186,52.4,186,52.4z"/>
			<path d="M228.5,48.7c0,0,0.1-0.1,0.1-0.1C228.5,48.6,228.5,48.7,228.5,48.7z"/>
			<path d="M229.8,47.7c0,0,0.1-0.1,0.1-0.1C229.9,47.6,229.9,47.7,229.8,47.7z"/>
			<path d="M230.4,47.2c0,0,0.1-0.1,0.1-0.1C230.5,47.1,230.5,47.2,230.4,47.2z"/>
			<path d="M232,45.6c0-0.1,0.1-0.1,0.1-0.2C232.1,45.5,232.1,45.6,232,45.6z"/>
			<path d="M232.4,45c0-0.1,0.1-0.1,0.1-0.2C232.5,44.9,232.5,45,232.4,45z"/>
			<path d="M229.2,48.2c0,0,0.1-0.1,0.1-0.1C229.2,48.1,229.2,48.2,229.2,48.2z"/>
			<path d="M231.5,46.2c0,0,0.1-0.1,0.1-0.1C231.6,46.1,231.6,46.1,231.5,46.2z"/>
			<path d="M201.4,52c0,0,0.1,0,0.1,0C201.5,52,201.5,52,201.4,52z"/>
			<path d="M186,52.4c0.3,0,0.6-0.1,0.9-0.1C186.6,52.3,186.3,52.4,186,52.4z"/>
			<path d="M192.6,51.8C192.7,51.8,192.7,51.8,192.6,51.8C192.7,51.8,192.7,51.8,192.6,51.8z"/>
			<path d="M200.5,51.9c0.1,0,0.1,0,0.2,0C200.6,51.9,200.6,51.9,200.5,51.9z"/>
			<path d="M199.5,51.9c0.1,0,0.1,0,0.2,0C199.6,51.9,199.6,51.9,199.5,51.9z"/>
			<path d="M206.2,55.1c-0.3,0-0.7-0.1-1-0.1C205.5,55,205.9,55.1,206.2,55.1z"/>
			<path d="M195.2,51.8C195.2,51.8,195.2,51.8,195.2,51.8C195.2,51.8,195.2,51.8,195.2,51.8z"/>
			<path d="M193.9,51.8C193.9,51.8,194,51.8,193.9,51.8C194,51.8,193.9,51.8,193.9,51.8z"/>
			<path d="M235.5,45.2c-0.2,0.3-0.3,0.6-0.5,0.9C235.2,45.8,235.4,45.5,235.5,45.2z"/>
			<path d="M234.9,46.2c-0.4,0.6-0.9,1.2-1.4,1.7C234,47.3,234.5,46.8,234.9,46.2z"/>
			<path d="M236.4,43.3c-0.1,0.3-0.2,0.6-0.4,0.9C236.2,43.9,236.3,43.6,236.4,43.3z"/>
			<path d="M233.5,48c-0.5,0.6-1.1,1.1-1.8,1.6C232.3,49.1,232.9,48.6,233.5,48z"/>
			<path d="M208,55.2C208,55.2,208,55.2,208,55.2C208,55.2,208,55.2,208,55.2z"/>
			<path d="M217.1,55c-0.1,0-0.2,0-0.3,0C217,55,217,55,217.1,55z"/>
			<path d="M223.3,51C223.3,51,223.3,51,223.3,51C223.3,51,223.3,51,223.3,51z"/>
			<path d="M222.3,51.3C222.3,51.3,222.3,51.3,222.3,51.3C222.3,51.3,222.3,51.3,222.3,51.3z"/>
			<path d="M232.8,44.5c0-0.1,0.1-0.1,0.1-0.2C232.9,44.3,232.9,44.4,232.8,44.5z"/>
			<path d="M227.7,49.1c0,0,0.1,0,0.1-0.1C227.8,49.1,227.8,49.1,227.7,49.1z"/>
			<path d="M224.3,50.7C224.3,50.7,224.3,50.7,224.3,50.7C224.3,50.7,224.3,50.7,224.3,50.7z"/>
			<path d="M226.1,50c0,0,0.1,0,0.1-0.1C226.2,49.9,226.1,49.9,226.1,50z"/>
			<path d="M226.9,49.6c0,0,0.1,0,0.1-0.1C227,49.5,227,49.5,226.9,49.6z"/>
			<path d="M225.2,50.3c0,0,0.1,0,0.1,0C225.3,50.3,225.2,50.3,225.2,50.3z"/>
			<path d="M216.4,52.4C216.4,52.4,216.4,52.4,216.4,52.4C216.4,52.4,216.4,52.4,216.4,52.4z"/>
			<path d="M217.7,52.3C217.7,52.3,217.7,52.3,217.7,52.3C217.7,52.3,217.7,52.3,217.7,52.3z"/>
			<path d="M202.3,52C202.3,52,202.3,52,202.3,52C202.3,52,202.3,52,202.3,52z"/>
			<path d="M221.2,51.6C221.2,51.6,221.2,51.6,221.2,51.6C221.2,51.6,221.2,51.6,221.2,51.6z"/>
			<path d="M218.9,52.1C218.9,52.1,218.9,52.1,218.9,52.1C218.9,52.1,218.9,52.1,218.9,52.1z"/>
			<path d="M220.1,51.9C220.1,51.9,220.1,51.9,220.1,51.9C220.1,51.9,220.1,51.9,220.1,51.9z"/>
			<path d="M236,44.3c-0.1,0.3-0.3,0.5-0.4,0.8C235.7,44.8,235.9,44.6,236,44.3z"/>
			<path class="st4" d="M225,24.5c0.1,0,0.2,0,0.3,0C225.2,24.5,225.1,24.5,225,24.5z"/>
			<path class="st4" d="M227.4,24.6c0.4,0.1,0.8,0.1,1.2,0.2C228.2,24.7,227.8,24.6,227.4,24.6z"/>
			<path class="st4" d="M226.1,24.5c0.4,0,0.8,0,1.2,0.1C226.9,24.5,226.5,24.5,226.1,24.5z"/>
			<path class="st4" d="M224.1,24.6c0.1,0,0.2,0,0.3,0C224.3,24.5,224.2,24.5,224.1,24.6z"/>
			<path class="st4" d="M232.7,26.8c0.1,0.1,0.3,0.2,0.4,0.3C233,27,232.8,26.9,232.7,26.8z"/>
			<path class="st4" d="M223.3,24.7c0.1,0,0.2,0,0.3-0.1C223.5,24.7,223.4,24.7,223.3,24.7z"/>
			<path class="st4" d="M230,25.3c0.3,0.1,0.6,0.3,1,0.4C230.7,25.5,230.4,25.4,230,25.3z"/>
			<path class="st4" d="M228.7,24.8c0.4,0.1,0.7,0.2,1.1,0.3C229.5,25.1,229.1,24.9,228.7,24.8z"/>
			<path class="st4" d="M231.4,25.9c0.2,0.1,0.5,0.3,0.7,0.4C231.9,26.2,231.6,26,231.4,25.9z"/>
			<path class="st4" d="M214.2,27.8c0.1,0.1,0.1,0.1,0.2,0.2C214.4,28,214.3,27.9,214.2,27.8z"/>
			<path class="st4" d="M214.8,28.4c0.1,0.1,0.1,0.2,0.2,0.2C214.9,28.6,214.8,28.5,214.8,28.4z"/>
			<path class="st4" d="M215.3,29c0.1,0.1,0.1,0.1,0.2,0.2C215.4,29.2,215.4,29.1,215.3,29z"/>
			<path class="st4" d="M212.8,26.6c0.1,0,0.1,0.1,0.2,0.1C212.9,26.7,212.9,26.7,212.8,26.6z"/>
			<path class="st4" d="M220.4,25.8C220.4,25.8,220.4,25.8,220.4,25.8C220.4,25.8,220.4,25.8,220.4,25.8z"/>
			<path class="st4" d="M221.8,25.1c0.1,0,0.1,0,0.2-0.1C221.9,25.1,221.8,25.1,221.8,25.1z"/>
			<path class="st4" d="M222.5,24.9c0.1,0,0.2,0,0.3-0.1C222.7,24.9,222.6,24.9,222.5,24.9z"/>
			<path class="st4" d="M221.1,25.4c0,0,0.1,0,0.1,0C221.1,25.4,221.1,25.4,221.1,25.4z"/>
			<path class="st4" d="M213.6,27.3c0.1,0,0.1,0.1,0.2,0.2C213.7,27.4,213.7,27.3,213.6,27.3z"/>
			<path d="M231.1,46.6c0,0-0.1,0.1-0.1,0.1C231,46.6,231.1,46.6,231.1,46.6z"/>
			<path d="M203,45.1C203.1,45.1,203.1,45.1,203,45.1C203.1,45.1,203.1,45.1,203,45.1C203,45.1,203,45.1,203,45.1z"/>
			<path d="M219.8,54.6c-0.2,0-0.3,0.1-0.5,0.1c-0.4,0.1-0.9,0.1-1.3,0.2c6-0.8,10.5-2.8,13.6-5.2c-2.7,2.2-6.4,3.9-11.3,4.9
				C220.2,54.6,220,54.6,219.8,54.6z"/>
			<path d="M203,54.8C203,54.8,202.9,54.8,203,54.8c0,0,0.1,0,0.2,0C203.1,54.8,203.1,54.8,203,54.8C203,54.8,203,54.8,203,54.8z"/>
			<path class="st4" d="M236.8,42.3c-0.1,0.3-0.2,0.6-0.3,0.9C236.6,42.9,236.7,42.6,236.8,42.3c0.4-1.5,0.7-3,0.7-4.4
				C237.5,39.3,237.2,40.8,236.8,42.3z"/>
			<path class="st4" d="M232.7,30.6c-1.6-2.2-4-3.4-6.9-3.5c0,0,0,0,0,0c-0.1,0-0.2,0-0.2,0c0.1,0,0.2,0,0.3,0
				C228.7,27.2,231.1,28.4,232.7,30.6c1.4,1.9,2.2,4.5,2.1,7.2C234.9,35.1,234.1,32.5,232.7,30.6z"/>
			<path d="M185.6,55.2c0.1,0,0.1,0,0.2,0c0,0,0,0,0,0C185.6,55.2,185.6,55.2,185.6,55.2z"/>
			<path d="M203.9,45.7C203.9,45.6,203.9,45.6,203.9,45.7c0,0,0.1,0.1,0.2,0.1c0,0,0,0,0,0C204,45.7,203.9,45.7,203.9,45.7z"/>
			<polygon points="209.1,49.1 209.1,49.1 209.1,49.1 209.1,49.1 			"/>
			<path d="M206.4,49.4c0-0.1,0-0.1,0-0.2c0,0,0,0,0,0C206.4,49.3,206.4,49.3,206.4,49.4L206.4,49.4
				C206.4,49.4,206.4,49.4,206.4,49.4L206.4,49.4z"/>
			<path class="st4" d="M219.3,29.9c0.1-0.1,0.1-0.1,0.2-0.2C219.4,29.8,219.4,29.8,219.3,29.9z"/>
			<path d="M203.7,45.5c0,0,0.1,0.1,0.1,0.1C203.8,45.6,203.8,45.6,203.7,45.5C203.7,45.5,203.7,45.5,203.7,45.5z"/>
			<path class="st4" d="M216.4,36.6L216.4,36.6L216.4,36.6L216.4,36.6l1-3.5c0.2-0.7,0.6-1.6,1.3-2.5c-0.6,0.8-1.1,1.7-1.3,2.5
				L216.4,36.6z"/>
			<path d="M198.6,30.5c-0.5,0.8-0.9,2-1,3.4C197.7,32.5,198.1,31.3,198.6,30.5c1-1.7,2.7-3,4.6-3.4c0,0,0,0,0.1,0c0,0,0,0-0.1,0
				C201.3,27.5,199.6,28.8,198.6,30.5z"/>
			<path d="M205.1,26.9C205.1,26.9,205.2,26.9,205.1,26.9C205.2,26.9,205.2,26.9,205.1,26.9C205.1,26.9,205.1,26.9,205.1,26.9z"/>
			<path class="st4" d="M208.7,24.6c0.1,0,0.2,0,0.3,0.1C208.9,24.7,208.8,24.6,208.7,24.6z"/>
			<path d="M207.3,27C207.3,27,207.3,27,207.3,27C207.3,27,207.3,27,207.3,27z"/>
			<path class="st4" d="M219,30.2c-0.1,0.1-0.2,0.2-0.3,0.4C218.8,30.4,218.9,30.3,219,30.2z"/>
			<path class="st4" d="M220,29.2c-0.1,0-0.1,0.1-0.2,0.1C219.9,29.3,219.9,29.3,220,29.2z"/>
			<path class="st4" d="M220.6,28.8c0,0-0.1,0.1-0.1,0.1C220.5,28.9,220.5,28.8,220.6,28.8z"/>
			<path d="M203.4,42.1c0.3,0.2,0.6,0.4,0.9,0.6C203.9,42.4,203.7,42.3,203.4,42.1z"/>
			<path class="st4" d="M221.2,28.4C221.1,28.4,221.1,28.4,221.2,28.4C221.1,28.4,221.1,28.4,221.2,28.4z"/>
			<path class="st4" d="M212.1,26.1c0.1,0.1,0.2,0.1,0.2,0.2C212.2,26.2,212.2,26.2,212.1,26.1z"/>
			<path d="M204.3,26.9c-0.1,0-0.2,0-0.3,0C204.2,27,204.2,26.9,204.3,26.9z"/>
			<path class="st4" d="M221.8,28C221.8,28,221.8,28.1,221.8,28C221.8,28.1,221.8,28,221.8,28z"/>
			<path d="M233.8,42.7c0-0.1,0.1-0.2,0.1-0.2C233.9,42.6,233.8,42.6,233.8,42.7z"/>
			<path class="st4" d="M224.9,27.2c-0.1,0-0.1,0-0.2,0C224.8,27.2,224.8,27.2,224.9,27.2z"/>
			<path d="M234,42.1c0-0.1,0-0.1,0.1-0.2C234.1,42,234.1,42,234,42.1z"/>
			<path d="M233.5,43.3c0-0.1,0.1-0.1,0.1-0.2C233.6,43.2,233.6,43.2,233.5,43.3z"/>
			<path class="st4" d="M223.3,27.5c0,0-0.1,0-0.1,0C223.2,27.5,223.2,27.5,223.3,27.5z"/>
			<path class="st4" d="M222.5,27.7c0,0-0.1,0-0.1,0C222.4,27.8,222.5,27.7,222.5,27.7z"/>
			<path d="M204.3,42.7c0.3,0.2,0.7,0.4,1,0.7C205,43.1,204.6,42.9,204.3,42.7z"/>
			<path class="st4" d="M224.1,27.3c-0.1,0-0.1,0-0.2,0C224,27.3,224,27.3,224.1,27.3z"/>
			<path d="M206.3,26.9C206.3,26.9,206.2,26.9,206.3,26.9C206.2,26.9,206.3,26.9,206.3,26.9z"/>
			<path d="M233.2,43.9c0-0.1,0.1-0.1,0.1-0.2C233.3,43.8,233.2,43.8,233.2,43.9z"/>
			<path d="M207.8,24.4c0.1,0,0.2,0,0.3,0.1C208,24.4,207.9,24.4,207.8,24.4z"/>
			<path d="M206.9,24.3c0.1,0,0.2,0,0.3,0C207.1,24.3,207,24.3,206.9,24.3z"/>
			<path d="M206,24.2C206,24.2,206,24.2,206,24.2C206,24.2,206,24.2,206,24.2z"/>
			<path d="M204.5,46.1C204.5,46.1,204.4,46.1,204.5,46.1C204.4,46.1,204.5,46.1,204.5,46.1z"/>
			<path class="st4" d="M209.7,24.9C209.7,24.9,209.8,24.9,209.7,24.9C209.8,24.9,209.7,24.9,209.7,24.9z"/>
			<path d="M205.4,43.4c0.2,0.2,0.4,0.3,0.6,0.5C205.8,43.7,205.6,43.6,205.4,43.4z"/>
			<path class="st4" d="M210.6,25.3c0.1,0,0.1,0.1,0.2,0.1C210.7,25.4,210.7,25.3,210.6,25.3z"/>
			<path class="st4" d="M211.4,25.7c0.1,0,0.2,0.1,0.3,0.1C211.5,25.8,211.4,25.7,211.4,25.7z"/>
			<path d="M207.3,45.1c0.4,0.4,0.7,0.8,0.9,1.3C207.9,45.9,207.6,45.5,207.3,45.1z"/>
			<path d="M205.3,46.9C205.3,46.9,205.3,46.9,205.3,46.9C205.3,46.9,205.3,46.9,205.3,46.9z"/>
			<path d="M206,43.9c0.2,0.2,0.4,0.4,0.6,0.5C206.5,44.3,206.2,44.1,206,43.9z"/>
			<path d="M208.2,46.4c0.3,0.5,0.5,1,0.6,1.6C208.7,47.4,208.5,46.9,208.2,46.4z"/>
			<path d="M206.7,44.5c0.2,0.2,0.4,0.4,0.5,0.6C207,44.9,206.8,44.7,206.7,44.5z"/>
			<path d="M205.6,47.3C205.6,47.3,205.6,47.3,205.6,47.3C205.6,47.3,205.6,47.3,205.6,47.3z"/>
			<path d="M208.9,48c0.1,0.3,0.1,0.6,0.2,0.9C209,48.6,209,48.3,208.9,48z"/>
			<path class="st4" d="M234.9,29c-0.5-0.7-1.1-1.4-1.8-1.9c-0.1-0.1-0.3-0.2-0.4-0.3c-0.2-0.2-0.4-0.3-0.6-0.4
				c-0.2-0.2-0.5-0.3-0.7-0.4c-0.1-0.1-0.2-0.1-0.4-0.2c-0.3-0.2-0.6-0.3-1-0.4c-0.1,0-0.1-0.1-0.2-0.1c-0.4-0.1-0.7-0.2-1.1-0.3
				c0,0-0.1,0-0.1,0c-0.4-0.1-0.8-0.2-1.2-0.2c0,0-0.1,0-0.1,0c-0.4,0-0.8-0.1-1.2-0.1c-0.1,0-0.2,0-0.3,0c-0.2,0-0.4,0-0.6,0
				c-0.1,0-0.2,0-0.3,0c-0.2,0-0.4,0-0.6,0.1c-0.1,0-0.2,0-0.3,0c-0.2,0-0.4,0.1-0.5,0.1c-0.1,0-0.2,0-0.3,0.1
				c-0.2,0-0.3,0.1-0.5,0.1c-0.1,0-0.2,0-0.3,0.1c-0.2,0.1-0.4,0.1-0.5,0.2c-0.1,0-0.1,0-0.2,0.1c-0.2,0.1-0.4,0.2-0.6,0.2
				c0,0-0.1,0-0.1,0c-0.2,0.1-0.4,0.2-0.7,0.3c0,0,0,0,0,0c-2,1.1-3.5,2.6-4.4,4.1c-0.2-0.2-0.3-0.4-0.5-0.6
				c-0.1-0.1-0.1-0.1-0.2-0.2c-0.1-0.1-0.2-0.3-0.3-0.4c-0.1-0.1-0.1-0.2-0.2-0.2c-0.1-0.1-0.2-0.3-0.4-0.4
				c-0.1-0.1-0.1-0.1-0.2-0.2c-0.1-0.1-0.3-0.3-0.4-0.4c-0.1-0.1-0.1-0.1-0.2-0.2c-0.2-0.2-0.4-0.3-0.6-0.5c-0.1,0-0.1-0.1-0.2-0.1
				c-0.2-0.1-0.3-0.2-0.5-0.4c-0.1-0.1-0.2-0.1-0.2-0.2c-0.2-0.1-0.3-0.2-0.5-0.3c-0.1,0-0.2-0.1-0.3-0.1c-0.2-0.1-0.4-0.2-0.5-0.3
				c-0.1,0-0.1-0.1-0.2-0.1c-0.3-0.1-0.5-0.2-0.8-0.3c0,0-0.1,0-0.1,0c-0.2-0.1-0.5-0.2-0.7-0.2c-0.1,0-0.2,0-0.3-0.1
				c-0.2-0.1-0.4-0.1-0.6-0.1c-0.1,0-0.2,0-0.3-0.1c-0.2,0-0.4-0.1-0.6-0.1c-0.1,0-0.2,0-0.3,0c-0.3,0-0.6-0.1-0.9-0.1c0,0,0,0,0,0
				c-1,0-2.1,0.1-3.3,0.3c-2.6,0.5-5,2.3-6.4,4.7c-1.5,2.5-1.7,5.5-0.7,8.5c1.1,3.2,3.8,5,6.2,6.6c0.4,0.3,0.9,0.6,1.3,0.8
				c0,0,0,0,0,0c0,0,0,0,0.1,0c0.2,0.1,0.4,0.3,0.6,0.4c0,0,0,0,0,0c0,0,0,0,0.1,0.1c0,0,0,0,0,0c0,0,0,0,0,0c0,0,0.1,0.1,0.1,0.1
				c0,0,0,0,0,0c0.1,0.1,0.3,0.2,0.4,0.3c0,0,0,0,0,0c0.3,0.2,0.5,0.5,0.8,0.8c0,0,0,0,0,0c0.1,0.1,0.2,0.3,0.3,0.4c0,0,0,0,0,0
				c0.4,0.6,0.7,1.2,0.8,1.9c0,0,0,0,0,0c0,0.1,0,0.1,0,0.2l0,0c0,0,0,0,0,0l2.6-0.3c0,0,0,0,0,0l0,0c0-0.1,0-0.1,0-0.2
				c0-0.3-0.1-0.6-0.2-0.9c0,0,0,0,0,0c-0.2-0.6-0.4-1.1-0.6-1.6c0,0,0,0,0,0c-0.3-0.5-0.6-0.9-0.9-1.3c0,0,0,0-0.1-0.1
				c-0.2-0.2-0.4-0.4-0.5-0.6c0,0,0,0,0,0c-0.2-0.2-0.4-0.4-0.6-0.5c0,0,0,0-0.1,0c-0.2-0.2-0.4-0.3-0.6-0.5c0,0-0.1-0.1-0.1-0.1
				c-0.3-0.2-0.7-0.5-1-0.7c0,0,0,0-0.1,0c-0.3-0.2-0.6-0.4-0.9-0.6c-0.1,0-0.1-0.1-0.2-0.1c-2.2-1.4-4.4-2.8-5.1-5.1
				c-0.4-1.1-0.5-2.1-0.5-2.9c0-1.4,0.5-2.6,1-3.4c1-1.7,2.7-3,4.6-3.4c0,0,0,0,0.1,0c0.3-0.1,0.5-0.1,0.8-0.1c0.1,0,0.2,0,0.3,0
				c0.3,0,0.5-0.1,0.8-0.1c0,0,0,0,0.1,0c0,0,0,0,0,0c0.4,0,0.7,0,1,0c0,0,0,0,0.1,0c0.3,0,0.7,0.1,1,0.1c0,0,0,0,0,0
				c4.6,0.8,6.9,4.9,7.6,6.3l1.5,3.3l0,0l0,0l1-3.5c0.2-0.7,0.6-1.6,1.3-2.5c0,0,0.1-0.1,0.1-0.1c0.1-0.1,0.2-0.2,0.3-0.4
				c0.1-0.1,0.2-0.2,0.3-0.3c0.1-0.1,0.1-0.1,0.2-0.2c0.1-0.1,0.2-0.2,0.3-0.3c0.1,0,0.1-0.1,0.2-0.1c0.1-0.1,0.3-0.2,0.4-0.4
				c0,0,0.1-0.1,0.1-0.1c0.2-0.1,0.3-0.2,0.5-0.3c0,0,0.1,0,0.1-0.1c0.2-0.1,0.4-0.2,0.6-0.3c0,0,0.1,0,0.1,0
				c0.2-0.1,0.4-0.2,0.6-0.3c0,0,0.1,0,0.1,0c0.2-0.1,0.4-0.1,0.6-0.2c0,0,0.1,0,0.1,0c0.2-0.1,0.4-0.1,0.6-0.2c0.1,0,0.1,0,0.2,0
				c0.2,0,0.4-0.1,0.6-0.1c0.1,0,0.1,0,0.2,0c0.2,0,0.4,0,0.6,0c0.1,0,0.2,0,0.2,0c0,0,0,0,0,0c2.9,0,5.2,1.2,6.9,3.5
				c1.4,1.9,2.2,4.5,2.1,7.2c0,1.2-0.2,2.5-0.6,3.7c0,0.1-0.1,0.3-0.1,0.4c0,0.1,0,0.1-0.1,0.2c0,0.1-0.1,0.2-0.1,0.4
				c0,0.1-0.1,0.2-0.1,0.2c-0.1,0.1-0.1,0.2-0.2,0.4c0,0.1-0.1,0.1-0.1,0.2c-0.1,0.1-0.1,0.3-0.2,0.4c0,0.1-0.1,0.1-0.1,0.2
				c-0.1,0.1-0.2,0.3-0.2,0.4c0,0.1-0.1,0.1-0.1,0.2c-0.1,0.1-0.2,0.3-0.3,0.4c0,0.1-0.1,0.1-0.1,0.2c-0.1,0.1-0.2,0.3-0.3,0.4
				c0,0.1-0.1,0.1-0.1,0.2c-0.1,0.1-0.2,0.3-0.3,0.4c0,0-0.1,0.1-0.1,0.1c-0.1,0.1-0.3,0.3-0.4,0.4c0,0-0.1,0.1-0.1,0.1
				c-0.1,0.1-0.3,0.3-0.4,0.4c0,0-0.1,0.1-0.1,0.1c-0.2,0.1-0.3,0.3-0.5,0.4c0,0-0.1,0.1-0.1,0.1c-0.2,0.1-0.3,0.3-0.5,0.4
				c0,0-0.1,0.1-0.1,0.1c-0.2,0.1-0.4,0.3-0.6,0.4c0,0-0.1,0.1-0.1,0.1c-0.2,0.1-0.4,0.3-0.6,0.4c0,0-0.1,0-0.1,0.1
				c-0.2,0.1-0.4,0.2-0.7,0.4c0,0-0.1,0-0.1,0.1c-0.2,0.1-0.5,0.2-0.7,0.4c0,0-0.1,0-0.1,0.1c-0.3,0.1-0.5,0.2-0.8,0.3
				c0,0-0.1,0-0.1,0c-0.3,0.1-0.6,0.2-0.8,0.3c0,0-0.1,0-0.1,0c-0.3,0.1-0.6,0.2-0.9,0.3c0,0-0.1,0-0.1,0c-0.3,0.1-0.6,0.2-1,0.3
				c0,0-0.1,0-0.1,0c-0.3,0.1-0.7,0.2-1,0.3c0,0,0,0-0.1,0c-0.3,0.1-0.7,0.2-1.1,0.2c0,0,0,0-0.1,0c-0.4,0.1-0.7,0.1-1.1,0.2
				c0,0,0,0,0,0c-0.4,0.1-0.8,0.1-1.2,0.2c0,0,0,0,0,0c-0.4,0.1-0.8,0.1-1.3,0.1c0,0,0,0,0,0c-3.4,0.3-7.3,0.3-11.8-0.2
				c-0.5-0.1-1.2-0.1-2.2-0.2c0,0,0,0-0.1,0c-0.2,0-0.5,0-0.7-0.1c0,0-0.1,0-0.1,0c-0.2,0-0.5,0-0.8,0c-0.1,0-0.1,0-0.2,0
				c-0.3,0-0.5,0-0.8,0c-0.1,0-0.1,0-0.2,0c-1.3-0.1-2.8-0.1-4.3-0.1c0,0,0,0,0,0c-0.4,0-0.8,0-1.2,0c0,0-0.1,0-0.1,0
				c-0.4,0-0.8,0-1.2,0c0,0-0.1,0-0.1,0c-1.3,0-2.6,0.1-4,0.3c-0.6,0.1-1.2,0.1-1.8,0.2c-0.3,0-0.6,0.1-0.9,0.1c0,0,0,0,0,0
				c-2.9,0.4-5.4,1-7.5,1.9c0,0,0,0,0,0c-1.4,0.5-3.5,1.5-4.9,2.9c0,0,0,0-0.1,0.1l0,0c0,0,0,0,0,0l0,0c-0.5,0.5-1,1.1-1.2,1.8v3.6
				c0.8-1.7,1.8-2.8,2.9-3.7c0,0,0,0,0,0c1.4-1.1,3-1.7,4.5-2.3c1.4-0.6,3.2-1,5-1.3c0.3-0.1,0.7-0.1,1-0.2c0,0,0.1,0,0.1,0
				c0,0,0,0,0,0c5.9-0.9,12.6-0.8,17.2-0.4c0,0,0.1,0,0.1,0c0,0,0,0,0,0c0,0,0.1,0,0.1,0c0.4,0,0.8,0.1,1.1,0.1
				c0.3,0,0.6,0.1,0.9,0.1c0.3,0,0.7,0.1,1,0.1c0.6,0.1,1.2,0.1,1.8,0.1c0,0,0,0,0,0c1.2,0.1,2.4,0.1,3.5,0.1c1.9,0,3.7-0.1,5.4-0.3
				c0.1,0,0.2,0,0.3,0c0.3,0,0.6-0.1,0.9-0.1c0.4-0.1,0.9-0.1,1.3-0.2c0.2,0,0.3-0.1,0.5-0.1c0.2,0,0.3-0.1,0.5-0.1
				c4.9-1,8.6-2.7,11.3-4.9c0,0,0,0,0,0c0.7-0.5,1.2-1.1,1.8-1.6c0,0,0.1-0.1,0.1-0.1c0.5-0.6,1-1.1,1.4-1.7c0,0,0.1-0.1,0.1-0.1
				c0.2-0.3,0.4-0.6,0.5-0.9c0,0,0-0.1,0.1-0.1c0.2-0.3,0.3-0.5,0.4-0.8c0,0,0-0.1,0-0.1c0.1-0.3,0.3-0.6,0.4-0.9
				c0-0.1,0-0.1,0.1-0.2c0.1-0.3,0.2-0.6,0.3-0.9c0.4-1.5,0.7-3,0.7-4.4C237.5,34.6,236.6,31.4,234.9,29z"/>
		</g>
	</g>
</g>
</svg>
